<mxfile host="app.diagrams.net" modified="2023-12-15T04:22:36.858Z" agent="Mozilla/5.0 (Macintosh; Intel Mac OS X 10.15; rv:120.0) Gecko/20100101 Firefox/120.0" version="22.1.9" etag="B9oXILIWqeFrKUry13u6" type="github">
  <diagram name="Page-1" id="mr20K2kkPDl44Yf7BdQM">
    <mxGraphModel>
      <root>
        <mxCell id="0" />
        <mxCell id="1" parent="0" />
      </root>
    </mxGraphModel>
  </diagram>
</mxfile>
